<svg xmlns="http://www.w3.org/2000/svg" viewBox="0 0 96 96" role="img" aria-label="TimTim logo icon">
  <defs>
    <linearGradient id="timtimGradient" x1="16" y1="12" x2="84" y2="86" gradientUnits="userSpaceOnUse">
      <stop offset="0" stop-color="#FF2F7D"/>
      <stop offset="1" stop-color="#FF4A4A"/>
    </linearGradient>
    <filter id="softShadow" x="-20%" y="-20%" width="140%" height="140%">
      <feDropShadow dx="0" dy="8" stdDeviation="10" flood-color="#FF2F7D" flood-opacity=".26"/>
    </filter>
  </defs>
  <rect width="96" height="96" rx="24" fill="url(#timtimGradient)" filter="url(#softShadow)"/>
  <circle cx="34" cy="32" r="12" fill="#fff" opacity=".96"/>
  <circle cx="62" cy="32" r="12" fill="#fff" opacity=".86"/>
  <path d="M18.5 72.5C21.6 55.7 31 47.4 46.7 47.4h2.6c15.7 0 25.1 8.3 28.2 25.1.6 3.2-1.8 6.1-5.1 6.1H23.6c-3.3 0-5.7-2.9-5.1-6.1Z" fill="#fff" opacity=".92"/>
  <path d="M48 71.8s-17.2-10.1-22.1-18.9c-3.5-6.3-.9-13.5 6-15.2 4.8-1.2 8.8 1.1 11.4 4.9 1.1 1.6 3.5 1.6 4.6 0 2.7-3.8 6.7-6.1 11.5-4.9 6.9 1.7 9.5 8.9 6 15.2C60.6 61.7 48 71.8 48 71.8Z" fill="#FF2F7D"/>
  <path d="M48 67.2s-11.8-7.1-15.2-13.3c-1.9-3.4-.5-7.3 3.3-8.2 2.8-.7 5.1.9 6.6 3.1 1.3 2 3.6 2 5 0 1.5-2.2 3.9-3.8 6.7-3.1 3.8.9 5.2 4.8 3.3 8.2C54.2 60.1 48 67.2 48 67.2Z" fill="#fff"/>
</svg>
